<?xml version="1.0" encoding="UTF-8"?>
<svg width="25px" height="24px" viewBox="0 0 25 24" version="1.1" xmlns="http://www.w3.org/2000/svg" xmlns:xlink="http://www.w3.org/1999/xlink">
    <!-- Generator: Sketch 64 (93537) - https://sketch.com -->
    <title>02 Icons / Faticons / ic24Info</title>
    <desc>Created with Sketch.</desc>
    <g id="02-Icons-/-Faticons-/-ic24Info" stroke="none" stroke-width="1" fill="none" fill-rule="evenodd">
        <g id="Info" transform="translate(2.000000, 2.000000)" fill="#A3A8AA">
            <g id="info-circle">
                <path d="M11.125,0 C13.4787963,0 15.7361873,0.935041958 17.4005727,2.59942732 C19.064958,4.26381268 20,6.52120365 20,8.875 L20,11.125 C20,16.0265272 16.0265272,20 11.125,20 L8.875,20 C3.97347285,20 0,16.0265272 0,11.125 L0,8.875 C0,3.97347285 3.97347285,0 8.875,0 L11.125,0 Z M11.125,2 L8.875,2 C5.07804234,2 2,5.07804234 2,8.875 L2,11.125 C2,14.9219577 5.07804234,18 8.875,18 L11.125,18 C14.9219577,18 18,14.9219577 18,11.125 L18,8.875 C18,7.05163663 17.2756717,5.30295348 15.9863591,4.01364088 C14.6970465,2.72432828 12.9483634,2 11.125,2 Z M10,9 C10.5522847,9 11,9.44771525 11,10 L11,10 L11,14 C11,14.5522847 10.5522847,15 10,15 C9.44771525,15 9,14.5522847 9,14 L9,14 L9,10 C9,9.44771525 9.44771525,9 10,9 Z M10,5 C10.5522847,5 11,5.44771525 11,6 C11,6.55228475 10.5522847,7 10,7 C9.44771525,7 9,6.55228475 9,6 C9,5.44771525 9.44771525,5 10,5 Z" id="Combined-Shape"></path>
            </g>
        </g>
    </g>
</svg>