<?xml version="1.0" encoding="UTF-8"?>
<svg width="25px" height="24px" viewBox="0 0 25 24" version="1.1" xmlns="http://www.w3.org/2000/svg" xmlns:xlink="http://www.w3.org/1999/xlink">
    <!-- Generator: Sketch 64 (93537) - https://sketch.com -->
    <title>02 Icons / Faticons / ic24Mail</title>
    <desc>Created with Sketch.</desc>
    <g id="02-Icons-/-Faticons-/-ic24Mail" stroke="none" stroke-width="1" fill="none" fill-rule="evenodd">
        <g id="Mail" transform="translate(2.000000, 4.000000)" fill="#0C9EDD">
            <g id="email">
                <path d="M10,0 C17.255096,0 20,2.1349253 20,8 C20,13.8650747 17.255096,16 10,16 C2.74490395,16 0,13.8650747 0,8 C0,2.1349253 2.74490395,0 10,0 Z M17.4374567,4.62788561 L17.1562583,4.92125482 C15.2016706,6.91618752 12.9431275,8.59252436 10.4625251,9.88660617 C10.1727298,10.0377868 9.82734129,10.0377986 9.53753559,9.88663784 C6.93672626,8.53007297 4.57995471,6.7533532 2.56158959,4.62982273 C2.16196074,5.48577824 2,6.59201777 2,8 C2,12.6349253 3.75509605,14 10,14 C16.244904,14 18,12.6349253 18,8 C18,6.59201777 17.8380393,5.48577824 17.4374567,4.62788561 Z M10,2 C7.05673145,2 5.11078631,2.30322477 3.87586286,3.10908859 C5.65339694,5.00864068 7.7201747,6.6141167 9.99996069,7.8658123 C12.4363342,6.52792124 14.629367,4.78593467 16.4849095,2.71303661 L16.1231256,3.1084287 C14.8881511,2.30305923 12.942465,2 10,2 Z" id="Combined-Shape"></path>
            </g>
        </g>
    </g>
</svg>