<?xml version="1.0" encoding="UTF-8"?>
<svg width="24px" height="24px" viewBox="0 0 24 24" version="1.1" xmlns="http://www.w3.org/2000/svg" xmlns:xlink="http://www.w3.org/1999/xlink">
    <!-- Generator: Sketch 64 (93537) - https://sketch.com -->
    <title>02 Icons / Faticons / ic24Phone</title>
    <desc>Created with Sketch.</desc>
    <g id="02-Icons-/-Faticons-/-ic24Phone" stroke="none" stroke-width="1" fill="none" fill-rule="evenodd">
        <g id="Group-4">
            <rect id="Rectangle" x="0" y="0" width="24" height="24"></rect>
            <g id="phone" transform="translate(3.000000, 3.000000)" fill="#0C9EDD">
                <path d="M10.6897674,1.21608319 C9.86656824,2.03928235 9.44285275,3.18027471 9.52921624,4.34124632 C9.52631579,5.12536025 9.73928735,5.74152247 10.1883473,6.53793028 C10.2160717,6.58709945 10.2574945,6.65969879 10.3196568,6.76882561 C10.3646369,6.84825719 10.397421,6.9078008 10.4260984,6.96258178 C10.5395229,7.17925085 10.5789474,7.30510567 10.5789474,7.42105263 C10.5789474,7.89233184 7.89233184,10.5789474 7.42105263,10.5789474 C7.30516811,10.5789474 7.17947563,10.5395626 6.96296618,10.4261772 C6.90821717,10.3975053 6.84870961,10.3647284 6.76928843,10.3197378 C6.66018929,10.2575692 6.58770454,10.2161981 6.53843563,10.1884097 C5.74224903,9.73934786 5.12580524,9.52631579 4.26315789,9.52631579 C3.18027471,9.44285275 2.03928235,9.86656824 1.21608319,10.6897674 C0.39288403,11.5129666 -0.0308314558,12.6539589 0.0555320307,13.8149305 C0.243377253,16.5923414 2.46029016,18.8092543 5.24474994,18.9976107 C8.74838342,19 10.7716278,18.1907022 14.481165,14.481165 C18.1907022,10.7716278 19,8.74838342 19,5.31578947 C18.8093348,2.46149538 16.5942124,0.245248754 13.8114071,0.0552710266 C12.6516504,-0.0299736354 11.5121337,0.393716924 10.6897674,1.21608319 Z M13.6658026,2.15549486 C15.3995228,2.27276677 16.7798648,3.65310877 16.8971367,5.38682901 C16.8947368,8.198985 16.3005258,9.68451252 12.9925192,12.9925192 C9.68451252,16.3005258 8.198985,16.8947368 5.31578947,16.8947368 C3.65310877,16.7798648 2.27276677,15.3995228 2.15549486,13.6658026 C2.11408527,13.1088198 2.3147926,12.5683497 2.70472904,12.1784133 C3.09466549,11.7884768 3.63513556,11.5877695 4.18506947,11.6286785 C4.69586143,11.6315789 4.99515501,11.7350095 5.50419595,12.0221166 C5.54769826,12.0466526 5.6140724,12.0845361 5.73162531,12.1515097 C5.82946642,12.2069348 5.90758575,12.2499631 5.98627358,12.2911717 C6.47776164,12.5485627 6.91066815,12.6842105 7.42105263,12.6842105 C9.05503658,12.6842105 12.6842105,9.05503658 12.6842105,7.42105263 C12.6842105,6.91071889 12.5485864,6.47776608 12.2912505,5.98619015 C12.2500405,5.90746871 12.2070043,5.82930486 12.1515907,5.73144851 C12.0846107,5.61384288 12.046662,5.54733246 12.022179,5.50391183 C11.7350001,4.99460003 11.6315789,4.69538537 11.6315789,4.26315789 C11.5877695,3.63513556 11.7884768,3.09466549 12.1784133,2.70472904 C12.5683497,2.3147926 13.1088198,2.11408527 13.6587537,2.15499429 L13.6658026,2.15549486 Z" id="Stroke-1"></path>
            </g>
        </g>
    </g>
</svg>